<svg width="100" height="100" viewBox="0 0 100 100" fill="none" xmlns="http://www.w3.org/2000/svg">
<g clip-path="url(#clip0_54_24)">
<path d="M99.7041 45.9315L81.9306 9.45881C81.4398 8.45138 80.4173 7.81252 79.297 7.81252H20.7031C19.5826 7.81252 18.5604 8.45158 18.0695 9.45881L0.296065 45.9315C-0.119561 46.7847 -0.0963189 47.7862 0.358369 48.619C0.813058 49.4519 1.64314 50.013 2.58552 50.1243C5.08084 50.4194 7.5203 50.4632 9.96093 50.2726V89.258C9.96093 90.876 11.2726 92.1877 12.8906 92.1877C16.7473 92.1877 84.5829 92.1877 87.1095 92.1877C88.7275 92.1877 90.0392 90.876 90.0392 89.258V50.2737C92.4833 50.4646 94.9523 50.4153 97.4146 50.1241C98.357 50.0128 99.1871 49.4517 99.6418 48.6188C100.096 47.786 100.12 46.7845 99.7041 45.9315ZM59.7093 13.6719L68.1704 37.6911C59.7557 46.8561 40.1522 46.7554 31.8297 37.6911L40.2909 13.6719H59.7093ZM7.50155 44.5206L22.5344 13.6719H34.0785L25.907 36.8688C21.7399 42.1489 14.2555 44.422 7.50155 44.5206ZM35.3516 86.3283H15.8203V77.5392H35.3516V86.3283ZM58.7891 86.3283H41.211V62.8907H58.7891V86.3283ZM84.1798 86.3283H64.6485V77.5392H84.1798V86.3283ZM84.1798 71.6798H64.6485V59.9611C64.6485 58.3431 63.3368 57.0314 61.7188 57.0314H38.2813C36.6633 57.0314 35.3516 58.3431 35.3516 59.9611V71.6798H15.8203V49.3399C20.4637 48.2019 25.0244 46.0327 28.5164 42.6858C39.2584 52.9741 60.7585 52.9579 71.4837 42.6858C74.9452 46.0034 79.4864 48.1895 84.1798 49.3399V71.6798ZM74.0929 36.8684L65.9214 13.6719H77.4655L92.4986 44.5208C85.7689 44.4216 78.2759 42.1686 74.0929 36.8684Z" fill="#043C4B"/>
</g>
<defs>
<clipPath id="clip0_54_24">
<rect width="100" height="100" fill="white"/>
</clipPath>
</defs>
</svg>
